<mxfile host="Electron" modified="2023-05-27T15:11:13.793Z" agent="Mozilla/5.0 (X11; Linux x86_64) AppleWebKit/537.36 (KHTML, like Gecko) draw.io/21.2.8 Chrome/112.0.5615.165 Electron/24.2.0 Safari/537.36" etag="-g9GjZES-zqB6M82Bk-0" version="21.2.8" type="device">
  <diagram name="Page-1" id="OQ6xg5ba5_ODMPmrMaXz">
    <mxGraphModel dx="2514" dy="1529" grid="1" gridSize="10" guides="1" tooltips="1" connect="1" arrows="1" fold="1" page="1" pageScale="1" pageWidth="850" pageHeight="1100" math="1" shadow="0">
      <root>
        <mxCell id="0" />
        <mxCell id="1" parent="0" />
        <mxCell id="UqHkkT2i_7Ju10MoObZu-2" value="" style="ellipse;whiteSpace=wrap;html=1;" parent="1" vertex="1">
          <mxGeometry x="230" y="280" width="200" height="130" as="geometry" />
        </mxCell>
        <mxCell id="UqHkkT2i_7Ju10MoObZu-3" value="" style="ellipse;whiteSpace=wrap;html=1;" parent="1" vertex="1">
          <mxGeometry x="210" y="460" width="220" height="150" as="geometry" />
        </mxCell>
        <mxCell id="UqHkkT2i_7Ju10MoObZu-4" value="" style="curved=1;endArrow=none;html=1;rounded=0;exitX=0;exitY=1;exitDx=0;exitDy=0;entryX=1;entryY=0;entryDx=0;entryDy=0;endFill=0;strokeColor=#ff0000;" parent="1" source="UqHkkT2i_7Ju10MoObZu-2" target="UqHkkT2i_7Ju10MoObZu-2" edge="1">
          <mxGeometry width="50" height="50" relative="1" as="geometry">
            <mxPoint x="305" y="380" as="sourcePoint" />
            <mxPoint x="355" y="330" as="targetPoint" />
            <Array as="points">
              <mxPoint x="355" y="380" />
              <mxPoint x="290" y="310" />
            </Array>
          </mxGeometry>
        </mxCell>
        <mxCell id="UqHkkT2i_7Ju10MoObZu-6" value="$$\hat{p}$$" style="ellipse;whiteSpace=wrap;html=1;aspect=fixed;fillColor=#000000;align=left;verticalAlign=top;" parent="1" vertex="1">
          <mxGeometry x="250" y="520" width="10" height="10" as="geometry" />
        </mxCell>
        <mxCell id="UqHkkT2i_7Ju10MoObZu-7" value="$$p^\text{obs}$$" style="ellipse;whiteSpace=wrap;html=1;aspect=fixed;fillColor=#000000;align=left;verticalAlign=top;" parent="1" vertex="1">
          <mxGeometry x="370" y="550" width="10" height="10" as="geometry" />
        </mxCell>
        <mxCell id="UqHkkT2i_7Ju10MoObZu-8" value="" style="endArrow=classic;html=1;rounded=0;strokeColor=#ff0000;exitX=1;exitY=0.5;exitDx=0;exitDy=0;entryX=0;entryY=0.5;entryDx=0;entryDy=0;startArrow=none;" parent="1" source="UqHkkT2i_7Ju10MoObZu-9" target="UqHkkT2i_7Ju10MoObZu-7" edge="1">
          <mxGeometry width="50" height="50" relative="1" as="geometry">
            <mxPoint x="510" y="570" as="sourcePoint" />
            <mxPoint x="560" y="520" as="targetPoint" />
          </mxGeometry>
        </mxCell>
        <mxCell id="UqHkkT2i_7Ju10MoObZu-10" value="" style="endArrow=none;html=1;rounded=0;strokeColor=#ff0000;exitX=1;exitY=0.5;exitDx=0;exitDy=0;entryX=0;entryY=0.5;entryDx=0;entryDy=0;" parent="1" source="UqHkkT2i_7Ju10MoObZu-6" target="UqHkkT2i_7Ju10MoObZu-9" edge="1">
          <mxGeometry width="50" height="50" relative="1" as="geometry">
            <mxPoint x="260" y="525" as="sourcePoint" />
            <mxPoint x="370" y="555" as="targetPoint" />
          </mxGeometry>
        </mxCell>
        <mxCell id="UqHkkT2i_7Ju10MoObZu-9" value="$$\hat{p}&#39;$$" style="ellipse;whiteSpace=wrap;html=1;aspect=fixed;fillColor=#000000;align=left;verticalAlign=top;" parent="1" vertex="1">
          <mxGeometry x="315" y="540" width="10" height="10" as="geometry" />
        </mxCell>
        <mxCell id="UqHkkT2i_7Ju10MoObZu-11" value="$$p^\text{emp}$$" style="ellipse;whiteSpace=wrap;html=1;aspect=fixed;fillColor=#000000;align=left;verticalAlign=top;" parent="1" vertex="1">
          <mxGeometry x="370" y="500" width="10" height="10" as="geometry" />
        </mxCell>
        <mxCell id="UqHkkT2i_7Ju10MoObZu-12" value="$$\tilde{p}^\text{emp}$$" style="ellipse;whiteSpace=wrap;html=1;aspect=fixed;fillColor=#000000;align=left;verticalAlign=top;" parent="1" vertex="1">
          <mxGeometry x="325" y="490" width="10" height="10" as="geometry" />
        </mxCell>
      </root>
    </mxGraphModel>
  </diagram>
</mxfile>
